<svg xmlns="http://www.w3.org/2000/svg" width="1167.6126708984375" height="683.1210327148438" viewBox="-542.4685668945312 -577.4671020507812 1167.6126708984375 683.1210327148438"><title>Neo4j Graph Visualization</title><desc>Created using Neo4j (http://www.neo4j.com/)</desc><g class="layer relationships"><g class="relationship" transform="translate(-91.55247606338712 -407.44166710652416) rotate(255.04832374841806)"><path class="b-outline" fill="#A5ABB6" stroke="none" d="M 24.018736134675446,-6.953439040707552 L 24.277555179777966,-5.987513214418485 A 182.90532747990534 182.90532747990534 0 0 1 51.272656405130306,-11.084908152727422 L 51.16142792831409,-12.078703013825589 A 183.90532747990534 183.90532747990534 0 0 0 24.018736134675446,-6.953439040707552 Z M 87.73125105112729,-12.512509526484024 L 87.64362817532671,-11.516355807605038 A 182.90532747990534 182.90532747990534 0 0 1 114.75205097239312,-7.060759463723953 L 114.0445519478799,-4.145378677220615 L 121.67252264498646,-5.895825204276964 L 115.69538300507743,-10.947933845728404 L 114.9878839805642,-8.032553059225066 A 183.90532747990534 183.90532747990534 0 0 0 87.73125105112729,-12.512509526484024"/><text text-anchor="middle" pointer-events="none" font-size="8px" fill="#000000" x="69.4414598594815" y="-9.706958358112644" transform="rotate(180 69.4414598594815 -12.706958358112644)" font-family="Helvetica Neue, Helvetica, Arial, sans-serif">KNOWS</text></g><g class="relationship" transform="translate(-91.55247606338712 -407.44166710652416) rotate(255.04832374841806)"><path class="b-outline" fill="#A5ABB6" stroke="none" d="M 24.018736134675446,6.953439040707552 L 24.277555179777966,5.987513214418485 A 182.90532747990534 182.90532747990534 0 0 0 35.431292048018626,8.604683650362631 L 35.23345393235058,9.584918356945167 A 183.90532747990534 183.90532747990534 0 0 1 24.018736134675446,6.953439040707552 Z M 103.71389931153064,10.397261996001646 L 103.53936950117074,9.412610105587703 A 182.90532747990534 182.90532747990534 0 0 0 114.75205097239312,7.060759463723953 L 114.0445519478799,4.145378677220615 L 121.67252264498646,5.895825204276964 L 115.69538300507743,10.947933845728404 L 114.9878839805642,8.032553059225066 A 183.90532747990534 183.90532747990534 0 0 1 103.71389931153064,10.397261996001646"/><text text-anchor="middle" pointer-events="none" font-size="8px" fill="#000000" x="69.44145985948155" y="15.706958358112644" transform="rotate(180 69.44145985948155 12.706958358112644)" font-family="Helvetica Neue, Helvetica, Arial, sans-serif">KNOWS_PHONE</text></g><g class="relationship" transform="translate(-91.55247606338712 -407.44166710652416) rotate(334.19050634710993)"><path class="b-outline" fill="#A5ABB6" stroke="none" d="M 24.018736134675446,-6.953439040707552 L 24.277555179777966,-5.987513214418485 A 362.77487728118984 362.77487728118984 0 0 1 89.7502342262108,-17.23380530697284 L 89.67189261531517,-18.23073187999728 A 363.77487728118984 363.77487728118984 0 0 0 24.018736134675446,-6.953439040707552 Z M 141.29807109979907,-18.612843315240468 L 141.23449477818014,-17.614866335882027 A 362.77487728118984 362.77487728118984 0 0 1 206.86647059429083,-7.338946045138571 L 206.13299200761907,-4.429992768976513 L 213.77627466978092,-6.112321555598108 L 207.84444204318652,-11.21755041335465 L 207.11096345651475,-8.30859713719259 A 363.77487728118984 363.77487728118984 0 0 0 141.29807109979907,-18.612843315240468"/><text text-anchor="middle" pointer-events="none" font-size="8px" fill="#000000" x="115.48189521001832" y="-15.838817296442699" font-family="Helvetica Neue, Helvetica, Arial, sans-serif">KNOWS_SN</text></g><g class="relationship" transform="translate(-91.55247606338712 -407.44166710652416) rotate(334.19050634710993)"><path class="b-outline" fill="#A5ABB6" stroke="none" d="M 24.018736134675446,6.953439040707552 L 24.277555179777966,5.987513214418485 A 362.77487728118984 362.77487728118984 0 0 0 97.25565026364234,17.745363815665257 L 97.19799756068235,18.743700515301896 A 363.77487728118984 363.77487728118984 0 0 1 24.018736134675446,6.953439040707552 Z M 133.76519763944407,19.014352841604193 L 133.7223288320896,18.015272131473125 A 362.77487728118984 362.77487728118984 0 0 0 206.86647059429083,7.338946045138571 L 206.13299200761907,4.429992768976513 L 213.77627466978092,6.112321555598108 L 207.84444204318652,11.21755041335465 L 207.11096345651475,8.30859713719259 A 363.77487728118984 363.77487728118984 0 0 1 133.76519763944407,19.014352841604193"/><text text-anchor="middle" pointer-events="none" font-size="8px" fill="#000000" x="115.4818952100185" y="21.8388172964427" font-family="Helvetica Neue, Helvetica, Arial, sans-serif">KNOWS</text></g><g class="relationship" transform="translate(-209.0409695794957 -158.3609508788874) rotate(281.37392759950967)"><path class="b-outline" fill="#A5ABB6" stroke="none" d="M 21.40063509461097,12.933012701892217 L 21.90063509461097,12.06698729810778 A 101.41556456126004 101.41556456126004 0 0 0 36.90410727678877,19.16123205093143 L 36.552047804922545,20.097209683286636 A 102.41556456126004 102.41556456126004 0 0 1 21.40063509461097,12.933012701892217 Z M 104.27191994253818,21.636532385536555 L 103.96275304292735,20.685524589467022 A 101.41556456126004 101.41556456126004 0 0 0 119.27307734070402,14.280334816223876 L 117.89267798581184,11.61678500046798 L 125.7180934699498,11.50332795743478 L 121.11360981389359,17.831734570565068 L 119.73321045900141,15.168184754809173 A 102.41556456126004 102.41556456126004 0 0 1 104.27191994253818,21.636532385536555"/><text text-anchor="middle" pointer-events="none" font-size="8px" fill="#000000" x="70.29239958224049" y="29.127777612041143" font-family="Helvetica Neue, Helvetica, Arial, sans-serif">KNOWS_PHONE</text></g><g class="relationship" transform="translate(-209.0409695794957 -158.3609508788874) rotate(281.37392759950967)"><path class="b-outline" fill="#A5ABB6" stroke="none" d="M 25 0.5 L 44.65717173023057 0.5 L 44.65717173023057 -0.5 L 25 -0.5 Z M 96.25717020435167 0.5 L 115.91434193458224 0.5 L 115.91434193458224 3.5 L 122.91434193458224 0 L 115.91434193458224 -3.5 L 115.91434193458224 -0.5 L 96.25717020435167 -0.5 Z"/><text text-anchor="middle" pointer-events="none" font-size="8px" fill="#000000" x="70.45717096729112" y="3" font-family="Helvetica Neue, Helvetica, Arial, sans-serif">KNOWS_SN</text></g><g class="relationship" transform="translate(-209.0409695794957 -158.3609508788874) rotate(281.37392759950967)"><path class="b-outline" fill="#A5ABB6" stroke="none" d="M 21.40063509461097,-12.933012701892217 L 21.90063509461097,-12.06698729810778 A 101.41556456126004 101.41556456126004 0 0 1 52.26546584058974,-23.59285283134541 L 52.06487580667672,-24.572528103205826 A 102.41556456126004 102.41556456126004 0 0 0 21.40063509461097,-12.933012701892217 Z M 88.57176468188034,-25.402356646294592 L 88.41589630996806,-24.414578811638734 A 101.41556456126004 101.41556456126004 0 0 1 119.27307734070402,-14.280334816223876 L 117.89267798581184,-11.61678500046798 L 125.7180934699498,-11.50332795743478 L 121.11360981389359,-17.831734570565068 L 119.73321045900141,-15.168184754809173 A 102.41556456126004 102.41556456126004 0 0 0 88.57176468188034,-25.402356646294592"/><text text-anchor="middle" pointer-events="none" font-size="8px" fill="#000000" x="70.2923995822405" y="-23.127777612041143" font-family="Helvetica Neue, Helvetica, Arial, sans-serif">KNOWS</text></g><g class="relationship" transform="translate(-209.0409695794957 -158.3609508788874) rotate(454.94577173693335)"><path class="b-outline" fill="#A5ABB6" stroke="none" d="M 24.018736134675446,-6.953439040707552 L 24.277555179777966,-5.987513214418485 A 292.63948634956284 292.63948634956284 0 0 1 71.76684080680575,-14.592076595370372 L 71.67030090666557,-15.58740571062873 A 293.63948634956284 293.63948634956284 0 0 0 24.018736134675446,-6.953439040707552 Z M 123.28966303704422,-16.035358686683537 L 123.21041131333948,-15.038504051197606 A 292.63948634956284 292.63948634956284 0 0 1 170.84187446477492,-7.259398807296229 L 170.11582432281855,-4.348582565867519 L 177.75478738510128,-6.050417849636203 L 171.80994132071672,-11.140487129201176 L 171.08389117876035,-8.229670887772466 A 293.63948634956284 293.63948634956284 0 0 0 123.28966303704422,-16.035358686683537"/><text text-anchor="middle" pointer-events="none" font-size="8px" fill="#000000" x="97.47445805420365" y="-13.447924694989581" transform="rotate(180 97.47445805420365 -16.44792469498958)" font-family="Helvetica Neue, Helvetica, Arial, sans-serif">KNOWS_SN</text></g><g class="relationship" transform="translate(-209.0409695794957 -158.3609508788874) rotate(454.94577173693335)"><path class="b-outline" fill="#A5ABB6" stroke="none" d="M 24.018736134675446,6.953439040707552 L 24.277555179777966,5.987513214418485 A 292.63948634956284 292.63948634956284 0 0 0 79.26070151835687,15.221846363247096 L 79.18976944306984,16.219327511287247 A 293.63948634956284 293.63948634956284 0 0 1 24.018736134675446,6.953439040707552 Z M 115.7603601510484,16.536687204774807 L 115.70674974343366,15.538125276702544 A 292.63948634956284 292.63948634956284 0 0 0 170.84187446477492,7.259398807296229 L 170.11582432281855,4.348582565867519 L 177.75478738510128,6.050417849636203 L 171.80994132071672,11.140487129201176 L 171.08389117876035,8.229670887772466 A 293.63948634956284 293.63948634956284 0 0 1 115.7603601510484,16.536687204774807"/><text text-anchor="middle" pointer-events="none" font-size="8px" fill="#000000" x="97.47445805420381" y="19.44792469498958" transform="rotate(180 97.47445805420381 16.44792469498958)" font-family="Helvetica Neue, Helvetica, Arial, sans-serif">KNOWS</text></g><g class="relationship" transform="translate(353.37463851763135 -160.1747897468204) rotate(461.1102905773521)"><path class="b-outline" fill="#A5ABB6" stroke="none" d="M 24.018736134675446,-6.953439040707552 L 24.277555179777966,-5.987513214418485 A 222.21366392115286 222.21366392115286 0 0 1 45.35265477930001,-10.551395694038092 L 45.188677334968716,-11.537859782462277 A 223.21366392115286 223.21366392115286 0 0 0 24.018736134675446,-6.953439040707552 Z M 113.76647980452893,-12.257090345423421 L 113.62322783796813,-11.267404095101398 A 222.21366392115286 222.21366392115286 0 0 1 134.78941135969333,-7.1465399209019065 L 134.07390097738963,-4.233114978876522 L 141.70665462146985,-5.962586519197499 L 135.74342520276494,-11.031106510269085 L 135.02791482046123,-8.1176815682437 A 223.21366392115286 223.21366392115286 0 0 0 113.76647980452893,-12.257090345423421"/><text text-anchor="middle" pointer-events="none" font-size="8px" fill="#000000" x="79.45503464076816" y="-11.047012622745086" transform="rotate(180 79.45503464076816 -14.047012622745086)" font-family="Helvetica Neue, Helvetica, Arial, sans-serif">KNOWS_PHONE</text></g><g class="relationship" transform="translate(353.37463851763135 -160.1747897468204) rotate(461.1102905773521)"><path class="b-outline" fill="#A5ABB6" stroke="none" d="M 24.018736134675446,6.953439040707552 L 24.277555179777966,5.987513214418485 A 222.21366392115286 222.21366392115286 0 0 0 61.26388357695836,12.609156131642408 L 61.17150941982773,13.604880498670951 A 223.21366392115286 223.21366392115286 0 0 1 24.018736134675446,6.953439040707552 Z M 97.7438111168975,13.988443637050096 L 97.67234090601494,12.99100090237485 A 222.21366392115286 222.21366392115286 0 0 0 134.78941135969333,7.1465399209019065 L 134.07390097738963,4.233114978876522 L 141.70665462146985,5.962586519197499 L 135.74342520276494,11.031106510269085 L 135.02791482046123,8.1176815682437 A 223.21366392115286 223.21366392115286 0 0 1 97.7438111168975,13.988443637050096"/><text text-anchor="middle" pointer-events="none" font-size="8px" fill="#000000" x="79.45503464076822" y="17.047012622745086" transform="rotate(180 79.45503464076822 14.047012622745086)" font-family="Helvetica Neue, Helvetica, Arial, sans-serif">KNOWS</text></g><g class="relationship" transform="translate(-92.58863714197038 -37.78501993328032) rotate(278.39715965263724)"><path class="b-outline" fill="#A5ABB6" stroke="none" d="M 24.018736134675446,6.953439040707552 L 24.277555179777966,5.987513214418485 A 226.13599294321526 226.13599294321526 0 0 0 46.34704545014594,10.73452012742203 L 46.18582029084253,11.721437777485903 A 227.13599294321526 227.13599294321526 0 0 1 24.018736134675446,6.953439040707552 Z M 114.7703945433781,12.43249992412413 L 114.62966591119377,11.442451717174833 A 226.13599294321526 226.13599294321526 0 0 0 136.79283246756634,7.154034337714594 L 136.07662217090024,4.240781377371218 L 143.70979109114523,5.968419138884239 L 137.7477795297878,11.03837161817243 L 137.0315692331217,8.125118657829054 A 227.13599294321526 227.13599294321526 0 0 1 114.7703945433781,12.43249992412413"/><text text-anchor="middle" pointer-events="none" font-size="8px" fill="#000000" x="80.45629630892368" y="17.180730914399163" font-family="Helvetica Neue, Helvetica, Arial, sans-serif">KNOWS_PHONE</text></g><g class="relationship" transform="translate(-92.58863714197038 -37.78501993328032) rotate(278.39715965263724)"><path class="b-outline" fill="#A5ABB6" stroke="none" d="M 24.018736134675446,-6.953439040707552 L 24.277555179777966,-5.987513214418485 A 226.13599294321526 226.13599294321526 0 0 1 62.26342946603667,-12.75792975937901 L 62.172588431828665,-13.753795165196493 A 227.13599294321526 227.13599294321526 0 0 0 24.018736134675446,-6.953439040707552 Z M 98.74492573516739,-14.132965043465873 L 98.67475161352343,-13.135430285850134 A 226.13599294321526 226.13599294321526 0 0 1 136.79283246756634,-7.154034337714594 L 136.07662217090024,-4.240781377371218 L 143.70979109114523,-5.968419138884239 L 137.7477795297878,-11.03837161817243 L 137.0315692331217,-8.125118657829054 A 227.13599294321526 227.13599294321526 0 0 0 98.74492573516739,-14.132965043465873"/><text text-anchor="middle" pointer-events="none" font-size="8px" fill="#000000" x="80.45629630892367" y="-11.180730914399163" font-family="Helvetica Neue, Helvetica, Arial, sans-serif">KNOWS</text></g><g class="relationship" transform="translate(139.92650259772762 73.61088572617304) rotate(274.12838135931963)"><path class="b-outline" fill="#A5ABB6" stroke="none" d="M 24.018736134675446,-6.953439040707552 L 24.277555179777966,-5.987513214418485 A 213.78444260243486 213.78444260243486 0 0 1 59.11723811673265,-12.287678580555507 L 59.021385480751604,-13.28307411609677 A 214.78444260243486 214.78444260243486 0 0 0 24.018736134675446,-6.953439040707552 Z M 95.59351470637515,-13.676425275974026 L 95.51909370064129,-12.67919836402993 A 213.78444260243486 213.78444260243486 0 0 1 130.48622407404721,-7.129839460747833 L 129.77227338171252,-4.216031915813749 L 137.40410012761586,-5.949589102789204 L 131.43815833049348,-11.014916187326612 L 130.7242076381588,-8.101108642392528 A 214.78444260243486 214.78444260243486 0 0 0 95.59351470637515,-13.676425275974026"/><text text-anchor="middle" pointer-events="none" font-size="8px" fill="#000000" x="77.30443964752764" y="-10.75964825151496" font-family="Helvetica Neue, Helvetica, Arial, sans-serif">KNOWS</text></g><g class="relationship" transform="translate(139.92650259772762 73.61088572617304) rotate(274.12838135931963)"><path class="b-outline" fill="#A5ABB6" stroke="none" d="M 24.018736134675446,6.953439040707552 L 24.277555179777966,5.987513214418485 A 213.78444260243486 213.78444260243486 0 0 0 43.21799852515344,10.15197638721233 L 43.04777546540332,11.137381943280161 A 214.78444260243486 214.78444260243486 0 0 1 24.018736134675446,6.953439040707552 Z M 111.60958007839815,11.874797727890865 L 111.46059098394258,10.885958888780408 A 213.78444260243486 213.78444260243486 0 0 0 130.48622407404721,7.129839460747833 L 129.77227338171252,4.216031915813749 L 137.40410012761586,5.949589102789204 L 131.43815833049348,11.014916187326612 L 130.7242076381588,8.101108642392528 A 214.78444260243486 214.78444260243486 0 0 1 111.60958007839815,11.874797727890865"/><text text-anchor="middle" pointer-events="none" font-size="8px" fill="#000000" x="77.30443964752772" y="16.75964825151496" font-family="Helvetica Neue, Helvetica, Arial, sans-serif">KNOWS_PHONE</text></g><g class="relationship" transform="translate(151.5665105918893 -87.65540873600673) rotate(306.1708376083301)"><path class="b-outline" fill="#A5ABB6" stroke="none" d="M 24.018736134675446,-6.953439040707552 L 24.277555179777966,-5.987513214418485 A 187.4697398725959 187.4697398725959 0 0 1 52.430034308123005,-11.265616971447486 L 52.32138605403709,-12.259697228209546 A 188.4697398725959 188.4697398725959 0 0 0 24.018736134675446,-6.953439040707552 Z M 88.89177366446167,-12.687019420540196 L 88.80638340798804,-11.690671838569244 A 187.4697398725959 187.4697398725959 0 0 1 117.07450749172935,-7.071838530463102 L 116.36597373130597,-4.156709046145074 L 123.99456524854199,-5.904448003528206 L 118.01921917229386,-10.958677842887141 L 117.31068541187048,-8.043548358569112 A 188.4697398725959 188.4697398725959 0 0 0 88.89177366446167,-12.687019420540196"/><text text-anchor="middle" pointer-events="none" font-size="8px" fill="#000000" x="70.6020320841978" y="-9.862558556392173" font-family="Helvetica Neue, Helvetica, Arial, sans-serif">KNOWS</text></g><g class="relationship" transform="translate(151.5665105918893 -87.65540873600673) rotate(306.1708376083301)"><path class="b-outline" fill="#A5ABB6" stroke="none" d="M 24.018736134675446,6.953439040707552 L 24.277555179777966,5.987513214418485 A 187.4697398725959 187.4697398725959 0 0 0 44.979571692270724,10.299883940583811 L 44.8311812236764,11.28881278980927 A 188.4697398725959 188.4697398725959 0 0 1 24.018736134675446,6.953439040707552 Z M 96.40261971102768,11.891421118460897 L 96.27737771999102,10.899294894797208 A 187.4697398725959 187.4697398725959 0 0 0 117.07450749172935,7.071838530463102 L 116.36597373130597,4.156709046145074 L 123.99456524854199,5.904448003528206 L 118.01921917229386,10.958677842887141 L 117.31068541187048,8.043548358569112 A 188.4697398725959 188.4697398725959 0 0 1 96.40261971102768,11.891421118460897"/><text text-anchor="middle" pointer-events="none" font-size="8px" fill="#000000" x="70.60203208419784" y="15.862558556392173" font-family="Helvetica Neue, Helvetica, Arial, sans-serif">KNOWS_SN</text></g><g class="relationship" transform="translate(151.5665105918893 -87.65540873600673) rotate(265.4107303186494)"><path class="b-outline" fill="#A5ABB6" stroke="none" d="M 24.018736134675446,6.953439040707552 L 24.277555179777966,5.987513214418485 A 303.07866315044566 303.07866315044566 0 0 0 81.93552209105245,15.60114524437131 L 81.86694397651208,16.598790994227443 A 304.07866315044566 304.07866315044566 0 0 1 24.018736134675446,6.953439040707552 Z M 118.43706139972016,16.908213304433787 L 118.38537419526604,15.9095499813385 A 303.07866315044566 303.07866315044566 0 0 0 176.1977578390201,7.272920628615413 L 175.47044495224768,4.36241964687108 L 183.11014561088564,6.06094072310375 L 177.16750835471672,11.153588604274523 L 176.44019546794428,8.24308762253019 A 304.07866315044566 304.07866315044566 0 0 1 118.43706139972016,16.908213304433787"/><text text-anchor="middle" pointer-events="none" font-size="8px" fill="#000000" x="100.15157709536444" y="19.803802261475028" transform="rotate(180 100.15157709536444 16.803802261475028)" font-family="Helvetica Neue, Helvetica, Arial, sans-serif">KNOWS</text></g><g class="relationship" transform="translate(151.5665105918893 -87.65540873600673) rotate(265.4107303186494)"><path class="b-outline" fill="#A5ABB6" stroke="none" d="M 24.018736134675446,-6.953439040707552 L 24.277555179777966,-5.987513214418485 A 303.07866315044566 303.07866315044566 0 0 1 74.43947211789809,-14.99233553793971 L 74.34616098554896,-15.987972536338077 A 304.07866315044566 304.07866315044566 0 0 0 24.018736134675446,-6.953439040707552 Z M 125.967103261673,-16.424740923742036 L 125.89065259047663,-15.42766755890193 A 303.07866315044566 303.07866315044566 0 0 1 176.1977578390201,-7.272920628615413 L 175.47044495224768,-4.36241964687108 L 183.11014561088564,-6.06094072310375 L 177.16750835471672,-11.153588604274523 L 176.44019546794428,-8.24308762253019 A 304.07866315044566 304.07866315044566 0 0 0 125.967103261673,-16.424740923742036"/><text text-anchor="middle" pointer-events="none" font-size="8px" fill="#000000" x="100.1515770953643" y="-13.803802261475028" transform="rotate(180 100.1515770953643 -16.803802261475028)" font-family="Helvetica Neue, Helvetica, Arial, sans-serif">KNOWS_SN</text></g><g class="relationship" transform="translate(537.744531130789 -297.1569963307532) rotate(250.64004980816537)"><path class="b-outline" fill="#A5ABB6" stroke="none" d="M 24.018736134675446,6.953439040707552 L 24.277555179777966,5.987513214418485 A 234.50168553820012 234.50168553820012 0 0 0 64.39659987377637,13.073650862095974 L 64.30886294521352,14.069794542177505 A 235.50168553820012 235.50168553820012 0 0 1 24.018736134675446,6.953439040707552 Z M 100.88119702315345,14.43991720581684 L 100.8136385278455,13.442201890853852 A 234.50168553820012 234.50168553820012 0 0 0 141.06787891688046,7.169465277329129 L 140.35022751131686,4.256566985233679 L 147.98425016603045,5.980428379696646 L 142.02474745763192,11.05332966678973 L 141.30709605206832,8.14043137469428 A 235.50168553820012 235.50168553820012 0 0 1 100.88119702315345,14.43991720581684"/><text text-anchor="middle" pointer-events="none" font-size="8px" fill="#000000" x="82.59289384413474" y="17.465930836907745" transform="rotate(180 82.59289384413474 14.465930836907745)" font-family="Helvetica Neue, Helvetica, Arial, sans-serif">KNOWS</text></g><g class="relationship" transform="translate(537.744531130789 -297.1569963307532) rotate(250.64004980816537)"><path class="b-outline" fill="#A5ABB6" stroke="none" d="M 24.018736134675446,-6.953439040707552 L 24.277555179777966,-5.987513214418485 A 234.50168553820012 234.50168553820012 0 0 1 48.470019449996585,-11.119786720783566 L 48.31436582229691,-12.107598417507148 A 235.50168553820012 235.50168553820012 0 0 0 24.018736134675446,-6.953439040707552 Z M 116.91213008380694,-12.801827754198285 L 116.7765001731118,-11.811068183300875 A 234.50168553820012 234.50168553820012 0 0 1 141.06787891688046,-7.169465277329129 L 140.35022751131686,-4.256566985233679 L 147.98425016603045,-5.980428379696646 L 142.02474745763192,-11.05332966678973 L 141.30709605206832,-8.14043137469428 A 235.50168553820012 235.50168553820012 0 0 0 116.91213008380694,-12.801827754198285"/><text text-anchor="middle" pointer-events="none" font-size="8px" fill="#000000" x="82.59289384413471" y="-11.465930836907745" transform="rotate(180 82.59289384413471 -14.465930836907745)" font-family="Helvetica Neue, Helvetica, Arial, sans-serif">KNOWS_PHONE</text></g><g class="relationship" transform="translate(537.744531130789 -297.1569963307532) rotate(432.6252755061756)"><path class="b-outline" fill="#A5ABB6" stroke="none" d="M 24.018736134675446,-6.953439040707552 L 24.277555179777966,-5.987513214418485 A 242.7380728394913 242.7380728394913 0 0 1 59.018780251561225,-12.628524412737562 L 58.90308348087322,-13.62180899293216 A 243.7380728394913 243.7380728394913 0 0 0 24.018736134675446,-6.953439040707552 Z M 110.50972849695279,-14.132088097566879 L 110.41369533798773,-13.136709962193578 A 242.7380728394913 242.7380728394913 0 0 1 145.2794456887096,-7.183962554009684 L 144.56044038056754,-4.271398156976794 L 152.19526349981,-5.991710901183723 L 146.23811943289897,-11.067381750053537 L 145.51911412475692,-8.154817353020647 A 243.7380728394913 243.7380728394913 0 0 0 110.50972849695279,-14.132088097566879"/><text text-anchor="middle" pointer-events="none" font-size="8px" fill="#000000" x="84.69780578692229" y="-11.746722688792914" font-family="Helvetica Neue, Helvetica, Arial, sans-serif">KNOWS_SN</text></g><g class="relationship" transform="translate(537.744531130789 -297.1569963307532) rotate(432.6252755061756)"><path class="b-outline" fill="#A5ABB6" stroke="none" d="M 24.018736134675446,6.953439040707552 L 24.277555179777966,5.987513214418485 A 242.7380728394913 242.7380728394913 0 0 0 66.49841640983767,13.38254933694563 L 66.41353324853026,14.378940248649684 A 243.7380728394913 243.7380728394913 0 0 1 24.018736134675446,6.953439040707552 Z M 102.98577582788721,14.740561338183085 L 102.92061167753214,13.74268678018069 A 242.7380728394913 242.7380728394913 0 0 0 145.2794456887096,7.183962554009684 L 144.56044038056754,4.271398156976794 L 152.19526349981,5.991710901183723 L 146.23811943289897,11.067381750053537 L 145.51911412475692,8.154817353020647 A 243.7380728394913 243.7380728394913 0 0 1 102.98577582788721,14.740561338183085"/><text text-anchor="middle" pointer-events="none" font-size="8px" fill="#000000" x="84.69780578692225" y="17.746722688792914" font-family="Helvetica Neue, Helvetica, Arial, sans-serif">KNOWS</text></g><g class="relationship" transform="translate(443.45304112556124 -111.48450084341516) rotate(452.2186534314957)"><path class="b-outline" fill="#A5ABB6" stroke="none" d="M 24.018736134675446,6.953439040707552 L 24.277555179777966,5.987513214418485 A 224.7369665174778 224.7369665174778 0 0 0 45.992288518592865,10.669392768987876 L 45.830092355232075,11.656151303073614 A 225.7369665174778 225.7369665174778 0 0 1 24.018736134675446,6.953439040707552 Z M 114.41229689896127,12.370106216979991 L 114.27067838100614,11.38018490931347 A 224.7369665174778 224.7369665174778 0 0 0 136.07817377770272,7.151380744732038 L 135.3622113035835,4.23806686949424 L 142.99523323227746,5.96635395099349 L 137.0327904098617,11.035799245049104 L 136.31682793574248,8.122485369811304 A 225.7369665174778 225.7369665174778 0 0 1 114.41229689896127,12.370106216979991"/><text text-anchor="middle" pointer-events="none" font-size="8px" fill="#000000" x="80.09912595585831" y="17.133035907379764" transform="rotate(180 80.09912595585831 14.133035907379764)" font-family="Helvetica Neue, Helvetica, Arial, sans-serif">KNOWS_PHONE</text></g><g class="relationship" transform="translate(443.45304112556124 -111.48450084341516) rotate(452.2186534314957)"><path class="b-outline" fill="#A5ABB6" stroke="none" d="M 24.018736134675446,-6.953439040707552 L 24.277555179777966,-5.987513214418485 A 224.7369665174778 224.7369665174778 0 0 1 61.90686271575147,-12.704921626710842 L 61.81548077776611,-13.700737544142385 A 225.7369665174778 225.7369665174778 0 0 0 24.018736134675446,-6.953439040707552 Z M 98.38780833352783,-14.081463027453196 L 98.3171772520243,-13.08396052102745 A 224.7369665174778 224.7369665174778 0 0 1 136.07817377770272,-7.151380744732038 L 135.3622113035835,-4.23806686949424 L 142.99523323227746,-5.96635395099349 L 137.0327904098617,-11.035799245049104 L 136.31682793574248,-8.122485369811304 A 225.7369665174778 225.7369665174778 0 0 0 98.38780833352783,-14.081463027453196"/><text text-anchor="middle" pointer-events="none" font-size="8px" fill="#000000" x="80.0991259558582" y="-11.133035907379764" transform="rotate(180 80.0991259558582 -14.133035907379764)" font-family="Helvetica Neue, Helvetica, Arial, sans-serif">KNOWS</text></g><g class="relationship" transform="translate(-279.0500948294461 -222.34754605953515) rotate(475.75785873036887)"><path class="b-outline" fill="#A5ABB6" stroke="none" d="M 24.018736134675446,6.953439040707552 L 24.277555179777966,5.987513214418485 A 202.2755993680024 202.2755993680024 0 0 0 40.30914712408503,9.592200910451481 L 40.12958426210295,10.575947411638055 A 203.2755993680024 203.2755993680024 0 0 1 24.018736134675446,6.953439040707552 Z M 108.66582127054835,11.339677679994708 L 108.50822493968323,10.352174061521396 A 202.2755993680024 202.2755993680024 0 0 0 124.61616323761614,7.1056316785107425 L 123.90447338379589,4.191271105079698 L 131.53495288459195,5.930748781835355 L 125.56508304270979,10.991445776418802 L 124.85339318888954,8.077085202987757 A 203.2755993680024 203.2755993680024 0 0 1 108.66582127054835,11.339677679994708"/><text text-anchor="middle" pointer-events="none" font-size="8px" fill="#000000" x="74.37085277730212" y="16.367298312761648" transform="rotate(180 74.37085277730212 13.367298312761648)" font-family="Helvetica Neue, Helvetica, Arial, sans-serif">KNOWS_PHONE</text></g><g class="relationship" transform="translate(-279.0500948294461 -222.34754605953515) rotate(475.75785873036887)"><path class="b-outline" fill="#A5ABB6" stroke="none" d="M 24.018736134675446,-6.953439040707552 L 24.277555179777966,-5.987513214418485 A 202.2755993680024 202.2755993680024 0 0 1 56.18970273699662,-11.844439685273272 L 56.08864937226744,-12.839320691965497 A 203.2755993680024 203.2755993680024 0 0 0 24.018736134675446,-6.953439040707552 Z M 92.66028183074899,-13.246854923357773 L 92.58142362432952,-12.249969080705625 A 202.2755993680024 202.2755993680024 0 0 1 124.61616323761614,-7.1056316785107425 L 123.90447338379589,-4.191271105079698 L 131.53495288459195,-5.930748781835355 L 125.56508304270979,-10.991445776418802 L 124.85339318888954,-8.077085202987757 A 203.2755993680024 203.2755993680024 0 0 0 92.66028183074899,-13.246854923357773"/><text text-anchor="middle" pointer-events="none" font-size="8px" fill="#000000" x="74.37085277730205" y="-10.367298312761648" transform="rotate(180 74.37085277730205 -13.367298312761648)" font-family="Helvetica Neue, Helvetica, Arial, sans-serif">KNOWS</text></g><g class="relationship" transform="translate(239.08492001197394 -207.3619440701897) rotate(276.7450943493586)"><path class="b-outline" fill="#A5ABB6" stroke="none" d="M 24.018736134675446,-6.953439040707552 L 24.277555179777966,-5.987513214418485 A 203.1215150189009 203.1215150189009 0 0 1 56.40473800845583,-11.877202920712762 L 56.30408626939023,-12.872124639956581 A 204.1215150189009 204.1215150189009 0 0 0 24.018736134675446,-6.953439040707552 Z M 92.8757673434139,-13.278582365958442 L 92.79725285852393,-12.281669392995184 A 203.1215150189009 203.1215150189009 0 0 1 125.04739977580117,-7.107469439596026 L 124.33553828686088,-4.1931507849935965 L 131.96612021803023,-5.932179074502424 L 125.99654842772155,-10.993227645732599 L 125.28468693878126,-8.07890899113017 A 204.1215150189009 204.1215150189009 0 0 0 92.8757673434139,-13.278582365958442"/><text text-anchor="middle" pointer-events="none" font-size="8px" fill="#000000" x="74.58636162477498" y="-10.396136396467966" font-family="Helvetica Neue, Helvetica, Arial, sans-serif">KNOWS</text></g><g class="relationship" transform="translate(239.08492001197394 -207.3619440701897) rotate(276.7450943493586)"><path class="b-outline" fill="#A5ABB6" stroke="none" d="M 24.018736134675446,6.953439040707552 L 24.277555179777966,5.987513214418485 A 203.1215150189009 203.1215150189009 0 0 0 40.522707092481156,9.633963694162475 L 40.3438655520324,10.617841584660027 A 204.1215150189009 204.1215150189009 0 0 1 24.018736134675446,6.953439040707552 Z M 108.88214772461384,11.379576169940805 L 108.72521730018065,10.391966509251318 A 203.1215150189009 203.1215150189009 0 0 0 125.04739977580117,7.107469439596026 L 124.33553828686088,4.1931507849935965 L 131.96612021803023,5.932179074502424 L 125.99654842772155,10.993227645732599 L 125.28468693878126,8.07890899113017 A 204.1215150189009 204.1215150189009 0 0 1 108.88214772461384,11.379576169940805"/><text text-anchor="middle" pointer-events="none" font-size="8px" fill="#000000" x="74.586361624775" y="16.396136396467966" font-family="Helvetica Neue, Helvetica, Arial, sans-serif">KNOWS_PHONE</text></g><g class="relationship" transform="translate(596.1440940215208 24.53419697733818) rotate(267.86911265735876)"><path class="b-outline" fill="#A5ABB6" stroke="none" d="M 24.018736134675446,6.953439040707552 L 24.277555179777966,5.987513214418485 A 197.48540001755862 197.48540001755862 0 0 0 54.97246719036631,11.65831410500067 L 54.86907691117691,12.652954969920842 A 198.48540001755862 198.48540001755862 0 0 1 24.018736134675446,6.953439040707552 Z M 91.44039229772626,13.066692061735154 L 91.35953066023406,12.06996672565603 A 197.48540001755862 197.48540001755862 0 0 0 122.1748794626804,7.09504117224821 L 121.46417869759331,4.180439240164748 L 129.09406743172298,5.9225063757256144 L 123.12248048279649,10.981177081692826 L 122.41177971770941,8.066575149609363 A 198.48540001755862 198.48540001755862 0 0 1 91.44039229772626,13.066692061735154"/><text text-anchor="middle" pointer-events="none" font-size="8px" fill="#000000" x="73.15084092177088" y="16.20399642212149" transform="rotate(180 73.15084092177088 13.203996422121492)" font-family="Helvetica Neue, Helvetica, Arial, sans-serif">KNOWS</text></g><g class="relationship" transform="translate(596.1440940215208 24.53419697733818) rotate(267.86911265735876)"><path class="b-outline" fill="#A5ABB6" stroke="none" d="M 24.018736134675446,-6.953439040707552 L 24.277555179777966,-5.987513214418485 A 197.48540001755862 197.48540001755862 0 0 1 39.100603636185824,-9.353710648928796 L 38.916843549644746,-10.336681772916904 A 198.48540001755862 198.48540001755862 0 0 0 24.018736134675446,-6.953439040707552 Z M 107.44094483238106,-11.11190579984202 L 107.27946994810478,-10.125028977868794 A 197.48540001755862 197.48540001755862 0 0 1 122.1748794626804,-7.09504117224821 L 121.46417869759331,-4.180439240164748 L 129.09406743172298,-5.9225063757256144 L 123.12248048279649,-10.981177081692826 L 122.41177971770941,-8.066575149609363 A 198.48540001755862 198.48540001755862 0 0 0 107.44094483238106,-11.11190579984202"/><text text-anchor="middle" pointer-events="none" font-size="8px" fill="#000000" x="73.15084092177082" y="-10.203996422121492" transform="rotate(180 73.15084092177082 -13.203996422121492)" font-family="Helvetica Neue, Helvetica, Arial, sans-serif">KNOWS_PHONE</text></g><g class="relationship" transform="translate(-513.4685503441588 76.65393272886867) rotate(275.39655904382033)"><path class="b-outline" fill="#A5ABB6" stroke="none" d="M 24.018736134675446,-6.953439040707552 L 24.277555179777966,-5.987513214418485 A 247.93320586064854 247.93320586064854 0 0 1 67.82491479760915,-13.576480262679723 L 67.74173725025061,-14.573015006487196 A 248.93320586064854 248.93320586064854 0 0 0 24.018736134675446,-6.953439040707552 Z M 104.3138848538018,-14.929468778204154 L 104.25014689634807,-13.93150210903147 A 247.93320586064854 247.93320586064854 0 0 1 147.93715271370507,-7.192772758588339 L 147.21732462447403,-4.28041159933045 L 154.852633433512,-5.998567410258844 L 148.89692349934649,-11.075920970932192 L 148.17709541011544,-8.163559811674302 A 248.93320586064854 248.93320586064854 0 0 0 104.3138848538018,-14.929468778204154"/><text text-anchor="middle" pointer-events="none" font-size="8px" fill="#000000" x="86.0261288761314" y="-11.923833094912396" font-family="Helvetica Neue, Helvetica, Arial, sans-serif">KNOWS</text></g><g class="relationship" transform="translate(-513.4685503441588 76.65393272886867) rotate(275.39655904382033)"><path class="b-outline" fill="#A5ABB6" stroke="none" d="M 24.018736134675446,6.953439040707552 L 24.277555179777966,5.987513214418485 A 247.93320586064854 247.93320586064854 0 0 0 51.88394268421644,11.724751793021909 L 51.73646970673165,12.713817878231481 A 248.93320586064854 248.93320586064854 0 0 1 24.018736134675446,6.953439040707552 Z M 120.35235003831917,13.382588813124471 L 120.2241832911061,12.390836180201916 A 247.93320586064854 247.93320586064854 0 0 0 147.93715271370507,7.192772758588339 L 147.21732462447403,4.28041159933045 L 154.852633433512,5.998567410258844 L 148.89692349934649,11.075920970932192 L 148.17709541011544,8.163559811674302 A 248.93320586064854 248.93320586064854 0 0 1 120.35235003831917,13.382588813124471"/><text text-anchor="middle" pointer-events="none" font-size="8px" fill="#000000" x="86.02612887613147" y="17.923833094912396" font-family="Helvetica Neue, Helvetica, Arial, sans-serif">KNOWS_PHONE</text></g><g class="relationship" transform="translate(-374.0366582710544 40.73397621002226) rotate(360.8402851254116)"><path class="b-outline" fill="#A5ABB6" stroke="none" d="M 24.018736134675446,-6.953439040707552 L 24.277555179777966,-5.987513214418485 A 186.10903215735317 186.10903215735317 0 0 1 52.08491806196153,-11.211866481725906 L 51.97551338197522,-12.205863773471265 A 187.10903215735317 187.10903215735317 0 0 0 24.018736134675446,-6.953439040707552 Z M 88.54574298000335,-12.635099134224362 L 88.45969889315903,-11.638807803779713 A 186.10903215735317 186.10903215735317 0 0 1 116.38202372332373,-7.068569997950202 L 115.67379522877418,-4.153366334480344 L 123.30220368717832,-5.901904121246231 L 117.32632838272313,-10.955508215910012 L 116.61809988817359,-8.040304552440155 A 187.10903215735317 187.10903215735317 0 0 0 88.54574298000335,-12.635099134224362"/><text text-anchor="middle" pointer-events="none" font-size="8px" fill="#000000" x="70.25598384621937" y="-9.81617203387907" font-family="Helvetica Neue, Helvetica, Arial, sans-serif">KNOWS</text></g><g class="relationship" transform="translate(-374.0366582710544 40.73397621002226) rotate(360.8402851254116)"><path class="b-outline" fill="#A5ABB6" stroke="none" d="M 24.018736134675446,6.953439040707552 L 24.277555179777966,5.987513214418485 A 186.10903215735317 186.10903215735317 0 0 0 36.23627190029673,8.772502682059724 L 36.04170936430553,9.753392798020059 A 187.10903215735317 187.10903215735317 0 0 1 24.018736134675446,6.953439040707552 Z M 104.53272018668672,10.557291599362912 L 104.36123406092875,9.572105064399835 A 186.10903215735317 186.10903215735317 0 0 0 116.38202372332373,7.068569997950202 L 115.67379522877418,4.153366334480344 L 123.30220368717832,5.901904121246231 L 117.32632838272313,10.955508215910012 L 116.61809988817359,8.040304552440155 A 187.10903215735317 187.10903215735317 0 0 1 104.53272018668672,10.557291599362912"/><text text-anchor="middle" pointer-events="none" font-size="8px" fill="#000000" x="70.25598384621941" y="15.81617203387907" font-family="Helvetica Neue, Helvetica, Arial, sans-serif">KNOWS_PHONE</text></g><g class="relationship" transform="translate(-374.0366582710544 40.73397621002226) rotate(525.5537749759606)"><path class="b-outline" fill="#A5ABB6" stroke="none" d="M 24.018736134675446,6.953439040707552 L 24.277555179777966,5.987513214418485 A 179.0017323984486 179.0017323984486 0 0 0 50.28352288342973,10.929409018383325 L 50.16998716802016,11.9229429339224 A 180.0017323984486 180.0017323984486 0 0 1 24.018736134675446,6.953439040707552 Z M 86.7392442885356,12.362449200209369 L 86.64961941969277,11.366473606690676 A 179.0017323984486 179.0017323984486 0 0 0 112.7668462535145,7.051018491488472 L 112.06025699779445,4.13541707433609 L 119.6876811028234,5.888243797667086 L 113.70896526114123,10.93848704769165 L 113.00237600542118,8.022885630539268 A 180.0017323984486 180.0017323984486 0 0 1 86.7392442885356,12.362449200209369"/><text text-anchor="middle" pointer-events="none" font-size="8px" fill="#000000" x="68.44943347816306" y="15.573886817798353" transform="rotate(180 68.44943347816306 12.573886817798353)" font-family="Helvetica Neue, Helvetica, Arial, sans-serif">KNOWS</text></g><g class="relationship" transform="translate(-374.0366582710544 40.73397621002226) rotate(525.5537749759606)"><path class="b-outline" fill="#A5ABB6" stroke="none" d="M 24.018736134675446,-6.953439040707552 L 24.277555179777966,-5.987513214418485 A 179.0017323984486 179.0017323984486 0 0 1 42.8398354225412,-9.920142557683391 L 42.68471526344412,-10.9080381676755 A 180.0017323984486 180.0017323984486 0 0 0 24.018736134675446,-6.953439040707552 Z M 94.24674577603875,-11.527734527327567 L 94.11541296701407,-10.53639619291613 A 179.0017323984486 179.0017323984486 0 0 1 112.7668462535145,-7.051018491488472 L 112.06025699779445,-4.13541707433609 L 119.6876811028234,-5.888243797667086 L 113.70896526114123,-10.93848704769165 L 113.00237600542118,-8.022885630539268 A 180.0017323984486 180.0017323984486 0 0 0 94.24674577603875,-11.527734527327567"/><text text-anchor="middle" pointer-events="none" font-size="8px" fill="#000000" x="68.44943347816304" y="-9.573886817798353" transform="rotate(180 68.44943347816304 -12.573886817798353)" font-family="Helvetica Neue, Helvetica, Arial, sans-serif">KNOWS_SN</text></g><g class="relationship" transform="translate(25.146627925065804 -40.05936517229916) rotate(269.70698151355384)"><path class="b-outline" fill="#A5ABB6" stroke="none" d="M 24.018736134675446,-6.953439040707552 L 24.277555179777966,-5.987513214418485 A 222.91497195938177 222.91497195938177 0 0 1 61.442571551391964,-12.635793337462303 L 61.350475342557196,-13.631543450853343 A 223.91497195938177 223.91497195938177 0 0 0 24.018736134675446,-6.953439040707552 Z M 97.92278532540276,-14.014313750448025 L 97.85155029442441,-13.016854192189385 A 222.91497195938177 222.91497195938177 0 0 1 135.14757366039314,-7.147892479764327 L 134.43193696046717,-4.234498563089293 L 142.06476558262253,-5.963639166049608 L 136.10175592696106,-11.032417701997705 L 135.3861192270351,-8.119023785322671 A 223.91497195938177 223.91497195938177 0 0 0 97.92278532540276,-14.014313750448025"/><text text-anchor="middle" pointer-events="none" font-size="8px" fill="#000000" x="79.63403481197062" y="-11.07092128867734" transform="rotate(180 79.63403481197062 -14.07092128867734)" font-family="Helvetica Neue, Helvetica, Arial, sans-serif">KNOWS</text></g><g class="relationship" transform="translate(25.146627925065804 -40.05936517229916) rotate(269.70698151355384)"><path class="b-outline" fill="#A5ABB6" stroke="none" d="M 24.018736134675446,6.953439040707552 L 24.277555179777966,5.987513214418485 A 222.91497195938177 222.91497195938177 0 0 0 45.53040228304226,10.584260636064243 L 45.366923837615275,11.57080754213652 A 223.91497195938177 223.91497195938177 0 0 1 24.018736134675446,6.953439040707552 Z M 113.94596665289788,12.28856424868951 L 113.80317239929461,11.29881185483643 A 222.91497195938177 222.91497195938177 0 0 0 135.14757366039314,7.147892479764327 L 134.43193696046717,4.234498563089293 L 142.06476558262253,5.963639166049608 L 136.10175592696106,11.032417701997705 L 135.3861192270351,8.119023785322671 A 223.91497195938177 223.91497195938177 0 0 1 113.94596665289788,12.28856424868951"/><text text-anchor="middle" pointer-events="none" font-size="8px" fill="#000000" x="79.63403481197066" y="17.07092128867734" transform="rotate(180 79.63403481197066 14.07092128867734)" font-family="Helvetica Neue, Helvetica, Arial, sans-serif">KNOWS_PHONE</text></g><g class="relationship" transform="translate(134.97482540935914 -294.3548944202364) rotate(266.76401111743945)"><path class="b-outline" fill="#A5ABB6" stroke="none" d="M 24.018736134675446,-6.953439040707552 L 24.277555179777966,-5.987513214418485 A 321.9773083293743 321.9773083293743 0 0 1 86.78143668611898,-16.284130883731677 L 86.71674275446203,-17.28203603714394 A 322.9773083293743 322.9773083293743 0 0 0 24.018736134675446,-6.953439040707552 Z M 123.28595821029411,-17.578045889229998 L 123.23742680223606,-16.579224232260174 A 321.9773083293743 321.9773083293743 0 0 1 185.89979941401535,-7.2957659623446665 L 185.17035312023185,-4.385798934269343 L 192.8112968618217,-6.078719114862407 L 186.87239447239332,-11.175721999778432 L 186.14294817860983,-8.265754971703107 A 322.9773083293743 322.9773083293743 0 0 0 123.28595821029411,-17.578045889229998"/><text text-anchor="middle" pointer-events="none" font-size="8px" fill="#000000" x="105.00120462762155" y="-14.4480599378237" transform="rotate(180 105.00120462762155 -17.4480599378237)" font-family="Helvetica Neue, Helvetica, Arial, sans-serif">KNOWS</text></g><g class="relationship" transform="translate(134.97482540935914 -294.3548944202364) rotate(266.76401111743945)"><path class="b-outline" fill="#A5ABB6" stroke="none" d="M 24.018736134675446,6.953439040707552 L 24.277555179777966,5.987513214418485 A 321.9773083293743 321.9773083293743 0 0 0 70.78922374399784,14.846151659751285 L 70.6748610545483,15.839590724446168 A 322.9773083293743 322.9773083293743 0 0 1 24.018736134675446,6.953439040707552 Z M 139.3490881289815,16.395474889447712 L 139.25082217454994,15.400314700232116 A 321.9773083293743 321.9773083293743 0 0 0 185.89979941401535,7.2957659623446665 L 185.17035312023185,4.385798934269343 L 192.8112968618217,6.078719114862407 L 186.87239447239332,11.175721999778432 L 186.14294817860983,8.265754971703107 A 322.9773083293743 322.9773083293743 0 0 1 139.3490881289815,16.395474889447712"/><text text-anchor="middle" pointer-events="none" font-size="8px" fill="#000000" x="105.00120462762162" y="20.4480599378237" transform="rotate(180 105.00120462762162 17.4480599378237)" font-family="Helvetica Neue, Helvetica, Arial, sans-serif">KNOWS_PHONE</text></g><g class="relationship" transform="translate(-411.96246884799825 -286.94243173011375) rotate(474.5584613560903)"><path class="b-outline" fill="#A5ABB6" stroke="none" d="M 24.018736134675446,-6.953439040707552 L 24.277555179777966,-5.987513214418485 A 295.9225164489464 295.9225164489464 0 0 1 72.43327472450662,-14.701542581125295 L 72.3371865189583,-15.69691540411901 A 296.9225164489464 296.9225164489464 0 0 0 24.018736134675446,-6.953439040707552 Z M 124.30631846377146,-16.144296952160175 L 124.22738076503224,-15.147417400901475 A 295.9225164489464 295.9225164489464 0 0 1 172.52598348374374,-7.263724859048862 L 171.79952934940945,-4.353009415947524 L 179.43872854003592,-6.053784452785747 L 173.49458899618946,-11.14467878318398 L 172.76813486185517,-8.233963340082642 A 296.9225164489464 296.9225164489464 0 0 0 124.30631846377146,-16.144296952160175"/><text text-anchor="middle" pointer-events="none" font-size="8px" fill="#000000" x="98.3162495355236" y="-13.559845412422646" transform="rotate(180 98.3162495355236 -16.559845412422646)" font-family="Helvetica Neue, Helvetica, Arial, sans-serif">FAMILY_REL</text></g><g class="relationship" transform="translate(-411.96246884799825 -286.94243173011375) rotate(474.5584613560903)"><path class="b-outline" fill="#A5ABB6" stroke="none" d="M 24.018736134675446,6.953439040707552 L 24.277555179777966,5.987513214418485 A 295.9225164489464 295.9225164489464 0 0 0 80.10174922681074,15.341301635552952 L 80.03157481313715,16.338836372625053 A 296.9225164489464 296.9225164489464 0 0 1 24.018736134675446,6.953439040707552 Z M 116.60201925219005,16.653656756061025 L 116.5490287241259,15.65506174108475 A 295.9225164489464 295.9225164489464 0 0 0 172.52598348374374,7.263724859048862 L 171.79952934940945,4.353009415947524 L 179.43872854003592,6.053784452785747 L 173.49458899618946,11.14467878318398 L 172.76813486185517,8.233963340082642 A 296.9225164489464 296.9225164489464 0 0 1 116.60201925219005,16.653656756061025"/><text text-anchor="middle" pointer-events="none" font-size="8px" fill="#000000" x="98.31624953552361" y="19.559845412422646" transform="rotate(180 98.31624953552361 16.559845412422646)" font-family="Helvetica Neue, Helvetica, Arial, sans-serif">KNOWS</text></g><g class="relationship" transform="translate(-411.96246884799825 -286.94243173011375) rotate(310.80588952698486)"><path class="b-outline" fill="#A5ABB6" stroke="none" d="M 24.018736134675446,-6.953439040707552 L 24.277555179777966,-5.987513214418485 A 291.54472724700946 291.54472724700946 0 0 1 78.98027944120162,-15.181977018550924 L 78.90909103781217,-16.179439905691538 A 292.54472724700946 292.54472724700946 0 0 0 24.018736134675446,-6.953439040707552 Z M 115.47972992465866,-16.497655387813836 L 115.42590961833388,-15.49910475082686 A 291.54472724700946 291.54472724700946 0 0 1 170.28034811978975,-7.257940818660285 L 169.55443413367092,-4.347090619018074 L 177.19331758330804,-6.049283217656765 L 171.24823343461483,-11.139074418183233 L 170.522319448496,-8.228224218541023 A 292.54472724700946 292.54472724700946 0 0 0 115.47972992465866,-16.497655387813836"/><text text-anchor="middle" pointer-events="none" font-size="8px" fill="#000000" x="97.19378349452401" y="-13.410603551941904" font-family="Helvetica Neue, Helvetica, Arial, sans-serif">KNOWS</text></g><g class="relationship" transform="translate(-411.96246884799825 -286.94243173011375) rotate(310.80588952698486)"><path class="b-outline" fill="#A5ABB6" stroke="none" d="M 24.018736134675446,6.953439040707552 L 24.277555179777966,5.987513214418485 A 291.54472724700946 291.54472724700946 0 0 0 63.004775641294586,13.5986929184416 L 62.87879117298997,14.590725132508226 A 292.54472724700946 292.54472724700946 0 0 1 24.018736134675446,6.953439040707552 Z M 131.53524849796398,15.188131913835605 L 131.42654592209908,14.19405759568815 A 291.54472724700946 291.54472724700946 0 0 0 170.28034811978975,7.257940818660285 L 169.55443413367092,4.347090619018074 L 177.19331758330804,6.049283217656765 L 171.24823343461483,11.139074418183233 L 170.522319448496,8.228224218541023 A 292.54472724700946 292.54472724700946 0 0 1 131.53524849796398,15.188131913835605"/><text text-anchor="middle" pointer-events="none" font-size="8px" fill="#000000" x="97.19378349452406" y="19.410603551941904" font-family="Helvetica Neue, Helvetica, Arial, sans-serif">KNOWS_PHONE</text></g></g><g class="layer nodes"><g class="node" aria-label="graph-node2" transform="translate(-91.55247606338712,-407.44166710652416)"><circle class="b-outline" cx="0" cy="0" r="25" fill="#F16667" stroke="#eb2728" stroke-width="2px"/><text class="caption" text-anchor="middle" pointer-events="none" x="0" y="5" font-size="10px" fill="#FFFFFF" font-family="Helvetica Neue, Helvetica, Arial, sans-serif"> Benjam…</text></g><g class="node" aria-label="graph-node9" transform="translate(590.4409634835753,-128.74215509840252)"><circle class="b-outline" cx="0" cy="0" r="25" fill="#F16667" stroke="#eb2728" stroke-width="2px"/><text class="caption" text-anchor="middle" pointer-events="none" x="0" y="5" font-size="10px" fill="#FFFFFF" font-family="Helvetica Neue, Helvetica, Arial, sans-serif"> Todd</text></g><g class="node" aria-label="graph-node59" transform="translate(24.29593043622131,-206.40023809723527)"><circle class="b-outline" cx="0" cy="0" r="25" fill="#F16667" stroke="#eb2728" stroke-width="2px"/><text class="caption" text-anchor="middle" pointer-events="none" x="0" y="5" font-size="10px" fill="#FFFFFF" font-family="Helvetica Neue, Helvetica, Arial, sans-serif"> Louis</text></g><g class="node" aria-label="graph-node70" transform="translate(-209.0409695794957,-158.3609508788874)"><circle class="b-outline" cx="0" cy="0" r="25" fill="#F16667" stroke="#eb2728" stroke-width="2px"/><text class="caption" text-anchor="middle" pointer-events="none" x="0" y="5" font-size="10px" fill="#FFFFFF" font-family="Helvetica Neue, Helvetica, Arial, sans-serif"> Anne</text></g><g class="node" aria-label="graph-node118" transform="translate(353.37463851763135,-160.1747897468204)"><circle class="b-outline" cx="0" cy="0" r="25" fill="#F16667" stroke="#eb2728" stroke-width="2px"/><text class="caption" text-anchor="middle" pointer-events="none" x="0" y="5" font-size="10px" fill="#FFFFFF" font-family="Helvetica Neue, Helvetica, Arial, sans-serif"> Bobby</text></g><g class="node" aria-label="graph-node203" transform="translate(-92.58863714197038,-37.78501993328032)"><circle class="b-outline" cx="0" cy="0" r="25" fill="#F16667" stroke="#eb2728" stroke-width="2px"/><text class="caption" text-anchor="middle" pointer-events="none" x="0" y="5" font-size="10px" fill="#FFFFFF" font-family="Helvetica Neue, Helvetica, Arial, sans-serif"> Paul</text></g><g class="node" aria-label="graph-node280" transform="translate(139.92650259772762,73.61088572617304)"><circle class="b-outline" cx="0" cy="0" r="25" fill="#F16667" stroke="#eb2728" stroke-width="2px"/><text class="caption" text-anchor="middle" pointer-events="none" x="0" y="5" font-size="10px" fill="#FFFFFF" font-family="Helvetica Neue, Helvetica, Arial, sans-serif"> Janice</text></g><g class="node" aria-label="graph-node327" transform="translate(-280.3149504032931,-439.4258589841162)"><circle class="b-outline" cx="0" cy="0" r="25" fill="#F16667" stroke="#eb2728" stroke-width="2px"/><text class="caption" text-anchor="middle" pointer-events="none" x="0" y="5" font-size="10px" fill="#FFFFFF" font-family="Helvetica Neue, Helvetica, Arial, sans-serif"> Ann</text></g><g class="node" aria-label="graph-node360" transform="translate(480.6405714228131,-459.67498011109797)"><circle class="b-outline" cx="0" cy="0" r="25" fill="#F16667" stroke="#eb2728" stroke-width="2px"/><text class="caption" text-anchor="middle" pointer-events="none" x="0" y="5" font-size="10px" fill="#FFFFFF" font-family="Helvetica Neue, Helvetica, Arial, sans-serif"> Wanda</text></g><g class="node" aria-label="graph-node468" transform="translate(151.5665105918893,-87.65540873600673)"><circle class="b-outline" cx="0" cy="0" r="25" fill="#F16667" stroke="#eb2728" stroke-width="2px"/><text class="caption" text-anchor="middle" pointer-events="none" x="0" y="5" font-size="10px" fill="#FFFFFF" font-family="Helvetica Neue, Helvetica, Arial, sans-serif"> Bruce</text></g><g class="node" aria-label="graph-node576" transform="translate(537.744531130789,-297.1569963307532)"><circle class="b-outline" cx="0" cy="0" r="25" fill="#F16667" stroke="#eb2728" stroke-width="2px"/><text class="caption" text-anchor="middle" pointer-events="none" x="0" y="5" font-size="10px" fill="#FFFFFF" font-family="Helvetica Neue, Helvetica, Arial, sans-serif"> Angela</text></g><g class="node" aria-label="graph-node614" transform="translate(443.45304112556124,-111.48450084341516)"><circle class="b-outline" cx="0" cy="0" r="25" fill="#F16667" stroke="#eb2728" stroke-width="2px"/><text class="caption" text-anchor="middle" pointer-events="none" x="0" y="5" font-size="10px" fill="#FFFFFF" font-family="Helvetica Neue, Helvetica, Arial, sans-serif"> Jacqueli…</text></g><g class="node" aria-label="graph-node626" transform="translate(-279.0500948294461,-222.34754605953515)"><circle class="b-outline" cx="0" cy="0" r="25" fill="#F16667" stroke="#eb2728" stroke-width="2px"/><text class="caption" text-anchor="middle" pointer-events="none" x="0" y="5" font-size="10px" fill="#FFFFFF" font-family="Helvetica Neue, Helvetica, Arial, sans-serif"> Judith</text></g><g class="node" aria-label="graph-node662" transform="translate(321.3895887388455,2.699523197479215)"><circle class="b-outline" cx="0" cy="0" r="25" fill="#F16667" stroke="#eb2728" stroke-width="2px"/><text class="caption" text-anchor="middle" pointer-events="none" x="0" y="5" font-size="10px" fill="#FFFFFF" font-family="Helvetica Neue, Helvetica, Arial, sans-serif"> Harold</text></g><g class="node" aria-label="graph-node752" transform="translate(-129.21268078618812,-548.4671254639966)"><circle class="b-outline" cx="0" cy="0" r="25" fill="#F16667" stroke="#eb2728" stroke-width="2px"/><text class="caption" text-anchor="middle" pointer-events="none" x="0" y="5" font-size="10px" fill="#FFFFFF" font-family="Helvetica Neue, Helvetica, Arial, sans-serif"> Frances</text></g><g class="node" aria-label="graph-node806" transform="translate(239.08492001197394,-207.3619440701897)"><circle class="b-outline" cx="0" cy="0" r="25" fill="#F16667" stroke="#eb2728" stroke-width="2px"/><text class="caption" text-anchor="middle" pointer-events="none" x="0" y="5" font-size="10px" fill="#FFFFFF" font-family="Helvetica Neue, Helvetica, Arial, sans-serif"> Dorothy</text></g><g class="node" aria-label="graph-node824" transform="translate(257.43710064922675,-362.53255673509)"><circle class="b-outline" cx="0" cy="0" r="25" fill="#F16667" stroke="#eb2728" stroke-width="2px"/><text class="caption" text-anchor="middle" pointer-events="none" x="0" y="5" font-size="10px" fill="#FFFFFF" font-family="Helvetica Neue, Helvetica, Arial, sans-serif"> Kimberly</text></g><g class="node" aria-label="graph-node849" transform="translate(-226.4569631590055,42.89849714366746)"><circle class="b-outline" cx="0" cy="0" r="25" fill="#F16667" stroke="#eb2728" stroke-width="2px"/><text class="caption" text-anchor="middle" pointer-events="none" x="0" y="5" font-size="10px" fill="#FFFFFF" font-family="Helvetica Neue, Helvetica, Arial, sans-serif"> Jerry</text></g><g class="node" aria-label="graph-node853" transform="translate(122.72202612329255,-511.06981366420814)"><circle class="b-outline" cx="0" cy="0" r="25" fill="#F16667" stroke="#eb2728" stroke-width="2px"/><text class="caption" text-anchor="middle" pointer-events="none" x="0" y="5" font-size="10px" fill="#FFFFFF" font-family="Helvetica Neue, Helvetica, Arial, sans-serif"> Brandon</text></g><g class="node" aria-label="graph-node870" transform="translate(-496.6223615557385,-101.674437917249)"><circle class="b-outline" cx="0" cy="0" r="25" fill="#F16667" stroke="#eb2728" stroke-width="2px"/><text class="caption" text-anchor="middle" pointer-events="none" x="0" y="5" font-size="10px" fill="#FFFFFF" font-family="Helvetica Neue, Helvetica, Arial, sans-serif"> Kathy</text></g><g class="node" aria-label="graph-node910" transform="translate(596.1440940215208,24.53419697733818)"><circle class="b-outline" cx="0" cy="0" r="25" fill="#F16667" stroke="#eb2728" stroke-width="2px"/><text class="caption" text-anchor="middle" pointer-events="none" x="0" y="5" font-size="10px" fill="#FFFFFF" font-family="Helvetica Neue, Helvetica, Arial, sans-serif"> Phillip</text></g><g class="node" aria-label="graph-node1005" transform="translate(-513.4685503441588,76.65393272886867)"><circle class="b-outline" cx="0" cy="0" r="25" fill="#F16667" stroke="#eb2728" stroke-width="2px"/><text class="caption" text-anchor="middle" pointer-events="none" x="0" y="5" font-size="10px" fill="#FFFFFF" font-family="Helvetica Neue, Helvetica, Arial, sans-serif"> Jack</text></g><g class="node" aria-label="graph-node1024" transform="translate(-374.0366582710544,40.73397621002226)"><circle class="b-outline" cx="0" cy="0" r="25" fill="#F16667" stroke="#eb2728" stroke-width="2px"/><text class="caption" text-anchor="middle" pointer-events="none" x="0" y="5" font-size="10px" fill="#FFFFFF" font-family="Helvetica Neue, Helvetica, Arial, sans-serif"> Andrew</text></g><g class="node" aria-label="graph-node1088" transform="translate(-68.05684054103041,-203.97102783632283)"><circle class="b-outline" cx="0" cy="0" r="25" fill="#F16667" stroke="#eb2728" stroke-width="2px"/><text class="caption" text-anchor="middle" pointer-events="none" x="0" y="5" font-size="10px" fill="#FFFFFF" font-family="Helvetica Neue, Helvetica, Arial, sans-serif"> Craig</text></g><g class="node" aria-label="graph-node1100" transform="translate(25.146627925065804,-40.05936517229916)"><circle class="b-outline" cx="0" cy="0" r="25" fill="#F16667" stroke="#eb2728" stroke-width="2px"/><text class="caption" text-anchor="middle" pointer-events="none" x="0" y="5" font-size="10px" fill="#FFFFFF" font-family="Helvetica Neue, Helvetica, Arial, sans-serif"> Joan</text></g><g class="node" aria-label="graph-node1148" transform="translate(-346.7651652962483,-82.0088701376876)"><circle class="b-outline" cx="0" cy="0" r="25" fill="#F16667" stroke="#eb2728" stroke-width="2px"/><text class="caption" text-anchor="middle" pointer-events="none" x="0" y="5" font-size="10px" fill="#FFFFFF" font-family="Helvetica Neue, Helvetica, Arial, sans-serif"> Janet</text></g><g class="node" aria-label="graph-node1151" transform="translate(-179.8705975673995,-303.37040555897516)"><circle class="b-outline" cx="0" cy="0" r="25" fill="#F16667" stroke="#eb2728" stroke-width="2px"/><text class="caption" text-anchor="middle" pointer-events="none" x="0" y="5" font-size="10px" fill="#FFFFFF" font-family="Helvetica Neue, Helvetica, Arial, sans-serif"> Henry</text></g><g class="node" aria-label="graph-node1194" transform="translate(436.9773854356646,55.662954563116344)"><circle class="b-outline" cx="0" cy="0" r="25" fill="#F16667" stroke="#eb2728" stroke-width="2px"/><text class="caption" text-anchor="middle" pointer-events="none" x="0" y="5" font-size="10px" fill="#FFFFFF" font-family="Helvetica Neue, Helvetica, Arial, sans-serif"> Patricia</text></g><g class="node" aria-label="graph-node1234" transform="translate(134.97482540935914,-294.3548944202364)"><circle class="b-outline" cx="0" cy="0" r="25" fill="#F16667" stroke="#eb2728" stroke-width="2px"/><text class="caption" text-anchor="middle" pointer-events="none" x="0" y="5" font-size="10px" fill="#FFFFFF" font-family="Helvetica Neue, Helvetica, Arial, sans-serif"> Kenneth</text></g><g class="node" aria-label="graph-node1283" transform="translate(-411.96246884799825,-286.94243173011375)"><circle class="b-outline" cx="0" cy="0" r="25" fill="#F16667" stroke="#eb2728" stroke-width="2px"/><text class="caption" text-anchor="middle" pointer-events="none" x="0" y="5" font-size="10px" fill="#FFFFFF" font-family="Helvetica Neue, Helvetica, Arial, sans-serif"> Jessica</text></g></g></svg>