<svg xmlns="http://www.w3.org/2000/svg" width="202.49740600585938" height="60.93034362792969" viewBox="-158 -29.257518768310547 202.49740600585938 60.93034362792969"><title>Neo4j Graph Visualization</title><desc>Created using Neo4j (http://www.neo4j.com/)</desc><g class="layer relationships"><g class="relationship" transform="translate(-129 2.6728259631629925) rotate(358.8382256867649)"><path class="b-outline" fill="#A5ABB6" stroke="none" d="M 24.018736134675446,-6.953439040707552 L 24.277555179777966,-5.987513214418485 A 180.07035991574236 180.07035991574236 0 0 1 50.554238240820084,-10.972068370711469 L 50.4413437280689,-11.965675349848937 A 181.07035991574236 181.07035991574236 0 0 0 24.018736134675446,-6.953439040707552 Z M 87.01076396057508,-12.403606818125837 L 86.9216959862051,-11.407581268282058 A 180.07035991574236 180.07035991574236 0 0 1 113.31020993585709,-7.053710079832954 L 112.60336929582162,-4.138169596561582 L 120.23094450349619,-5.8903386669621165 L 114.25266412257103,-10.94109739086145 L 113.54582348253557,-8.025556907590078 A 181.07035991574236 181.07035991574236 0 0 0 87.01076396057508,-12.403606818125837"/><text text-anchor="middle" pointer-events="none" font-size="8px" fill="#000000" x="68.72095624424603" y="-9.610315630940107" font-family="Helvetica Neue, Helvetica, Arial, sans-serif">KNOWS</text></g><g class="relationship" transform="translate(-129 2.6728259631629925) rotate(358.8382256867649)"><path class="b-outline" fill="#A5ABB6" stroke="none" d="M 24.018736134675446,6.953439040707552 L 24.277555179777966,5.987513214418485 A 180.07035991574236 180.07035991574236 0 0 0 42.937231602422145,9.941512444737043 L 42.78203692077053,10.92939635025786 A 181.07035991574236 181.07035991574236 0 0 1 24.018736134675446,6.953439040707552 Z M 94.69269029783935,11.551044396852433 L 94.5611972333506,10.559727306315125 A 180.07035991574236 180.07035991574236 0 0 0 113.31020993585709,7.053710079832954 L 112.60336929582162,4.138169596561582 L 120.23094450349619,5.8903386669621165 L 114.25266412257103,10.94109739086145 L 113.54582348253557,8.025556907590078 A 181.07035991574236 181.07035991574236 0 0 1 94.69269029783935,11.551044396852433"/><text text-anchor="middle" pointer-events="none" font-size="8px" fill="#000000" x="68.72095624424607" y="15.610315630940107" font-family="Helvetica Neue, Helvetica, Arial, sans-serif">FAMILY_REL</text></g></g><g class="layer nodes"><g class="node" aria-label="graph-node1144" transform="translate(-129,2.6728259631629925)"><circle class="b-outline" cx="0" cy="0" r="25" fill="#F16667" stroke="#eb2728" stroke-width="2px"/><text class="caption" text-anchor="middle" pointer-events="none" x="0" y="5" font-size="10px" fill="#FFFFFF" font-family="Helvetica Neue, Helvetica, Arial, sans-serif"> Lillian</text></g><g class="node" aria-label="graph-node965" transform="translate(15.497405191822834,-0.2575187468845105)"><circle class="b-outline" cx="0" cy="0" r="25" fill="#F16667" stroke="#eb2728" stroke-width="2px"/><text class="caption" text-anchor="middle" pointer-events="none" x="0" y="5" font-size="10px" fill="#FFFFFF" font-family="Helvetica Neue, Helvetica, Arial, sans-serif"> Billy</text></g></g></svg>