<svg xmlns="http://www.w3.org/2000/svg" width="58" height="199.3456573486328" viewBox="-29 -99.6728286743164 58 199.3456573486328"><title>Neo4j Graph Visualization</title><desc>Created using Neo4j (http://www.neo4j.com/)</desc><g class="layer relationships"><g class="relationship" transform="translate(-4.20247348989775e-15 70.67282596316299) rotate(270)"><path class="b-outline" fill="#A5ABB6" stroke="none" d="M 24.018736134675446,-6.953439040707552 L 24.277555179777966,-5.987513214418485 A 173.804200468095 173.804200468095 0 0 1 48.967553846957216,-10.7209006316034 L 48.850791199805286,-11.71406047988063 A 174.804200468095 174.804200468095 0 0 0 24.018736134675446,-6.953439040707552 Z M 85.4191592905599,-12.161386206596404 L 85.32672577427394,-11.165667348149412 A 173.804200468095 173.804200468095 0 0 1 110.12512232964643,-7.037651007463856 L 109.41978155238351,-4.1217473074198825 L 117.04645442595952,-5.877839810524364 L 111.06557669933034,-10.925522607522486 L 110.36023592206742,-8.009618907478513 A 174.804200468095 174.804200468095 0 0 0 85.4191592905599,-12.161386206596404"/><text text-anchor="middle" pointer-events="none" font-size="8px" fill="#000000" x="67.12936067456086" y="-9.396708089487419" font-family="Helvetica Neue, Helvetica, Arial, sans-serif">KNOWS</text></g><g class="relationship" transform="translate(-4.20247348989775e-15 70.67282596316299) rotate(270)"><path class="b-outline" fill="#A5ABB6" stroke="none" d="M 24.018736134675446,6.953439040707552 L 24.277555179777966,5.987513214418485 A 173.804200468095 173.804200468095 0 0 0 41.35623573131559,9.65496385596208 L 41.19568059758887,10.641990729473633 A 174.804200468095 174.804200468095 0 0 1 24.018736134675446,6.953439040707552 Z M 93.0982037204636,11.276892834393976 L 92.96184079968198,10.28623388509007 A 173.804200468095 173.804200468095 0 0 0 110.12512232964643,7.037651007463856 L 109.41978155238351,4.1217473074198825 L 117.04645442595952,5.877839810524364 L 111.06557669933034,10.925522607522486 L 110.36023592206742,8.009618907478513 A 174.804200468095 174.804200468095 0 0 1 93.0982037204636,11.276892834393976"/><text text-anchor="middle" pointer-events="none" font-size="8px" fill="#000000" x="67.1293606745609" y="15.396708089487419" font-family="Helvetica Neue, Helvetica, Arial, sans-serif">FAMILY_REL</text></g></g><g class="layer nodes"><g class="node" aria-label="graph-node1144" transform="translate(-4.20247348989775e-15,70.67282596316299)"><circle class="b-outline" cx="0" cy="0" r="25" fill="#F16667" stroke="#eb2728" stroke-width="2px"/><text class="caption" text-anchor="middle" pointer-events="none" x="0" y="5" font-size="10px" fill="#FFFFFF" font-family="Helvetica Neue, Helvetica, Arial, sans-serif"> Lillian</text></g><g class="node" aria-label="graph-node965" transform="translate(4.452451520350793e-15,-70.67282596316299)"><circle class="b-outline" cx="0" cy="0" r="25" fill="#F16667" stroke="#eb2728" stroke-width="2px"/><text class="caption" text-anchor="middle" pointer-events="none" x="0" y="5" font-size="10px" fill="#FFFFFF" font-family="Helvetica Neue, Helvetica, Arial, sans-serif"> Billy</text></g></g></svg>